<svg width="197" height="29" viewBox="0 0 197 29" fill="none" xmlns="http://www.w3.org/2000/svg">
<path d="M32.7131 23V9.90909H35.1591V12.0398H35.321C35.5938 11.3182 36.0398 10.7557 36.6591 10.3523C37.2784 9.94318 38.0199 9.73864 38.8835 9.73864C39.7585 9.73864 40.4915 9.94318 41.0824 10.3523C41.679 10.7614 42.1193 11.3239 42.4034 12.0398H42.5398C42.8523 11.3409 43.3494 10.7841 44.0312 10.3693C44.7131 9.94886 45.5256 9.73864 46.4688 9.73864C47.6562 9.73864 48.625 10.1108 49.375 10.8551C50.1307 11.5994 50.5085 12.7216 50.5085 14.2216V23H47.9602V14.4602C47.9602 13.5739 47.7188 12.9318 47.2358 12.5341C46.7528 12.1364 46.1761 11.9375 45.5057 11.9375C44.6761 11.9375 44.0312 12.1932 43.571 12.7045C43.1108 13.2102 42.8807 13.8608 42.8807 14.6562V23H40.3409V14.2983C40.3409 13.5881 40.1193 13.017 39.6761 12.5852C39.233 12.1534 38.6563 11.9375 37.946 11.9375C37.4631 11.9375 37.017 12.0653 36.608 12.321C36.2045 12.571 35.8778 12.9205 35.6278 13.3693C35.3835 13.8182 35.2614 14.3381 35.2614 14.929V23H32.7131ZM53.2661 27.9091C52.8854 27.9091 52.5388 27.8778 52.2263 27.8153C51.9138 27.7585 51.6808 27.696 51.5274 27.6278L52.1411 25.5398C52.607 25.6648 53.0217 25.7188 53.3854 25.7017C53.749 25.6847 54.07 25.5483 54.3484 25.2926C54.6325 25.0369 54.8825 24.6193 55.0984 24.0398L55.4138 23.1705L50.624 9.90909H53.3513L56.6666 20.0682H56.803L60.1183 9.90909H62.8541L57.4592 24.7472C57.2092 25.429 56.8911 26.0057 56.5047 26.4773C56.1183 26.9545 55.6581 27.3125 55.124 27.5511C54.5899 27.7898 53.9706 27.9091 53.2661 27.9091ZM74.1114 9.90909V11.9545H66.9608V9.90909H74.1114ZM68.8784 6.77273H71.4267V19.1562C71.4267 19.6506 71.5006 20.0227 71.6483 20.2727C71.796 20.517 71.9864 20.6847 72.2193 20.7756C72.458 20.8608 72.7165 20.9034 72.9949 20.9034C73.1994 20.9034 73.3784 20.8892 73.5318 20.8608C73.6852 20.8324 73.8045 20.8097 73.8898 20.7926L74.35 22.8977C74.2023 22.9545 73.992 23.0114 73.7193 23.0682C73.4466 23.1307 73.1057 23.1648 72.6966 23.1705C72.0261 23.1818 71.4011 23.0625 70.8216 22.8125C70.242 22.5625 69.7733 22.1761 69.4153 21.6534C69.0574 21.1307 68.8784 20.4744 68.8784 19.6847V6.77273ZM75.1303 23V9.90909H77.5933V11.9886H77.7297C77.9683 11.2841 78.3888 10.7301 78.9911 10.3267C79.599 9.91761 80.2865 9.71307 81.0536 9.71307C81.2126 9.71307 81.4001 9.71875 81.6161 9.73011C81.8376 9.74148 82.0109 9.75568 82.1359 9.77273V12.2102C82.0337 12.1818 81.8518 12.1506 81.5905 12.1165C81.3291 12.0767 81.0678 12.0568 80.8064 12.0568C80.2041 12.0568 79.6672 12.1847 79.1956 12.4403C78.7297 12.6903 78.3604 13.0398 78.0876 13.4886C77.8149 13.9318 77.6786 14.4375 77.6786 15.0057V23H75.1303ZM86.2337 23.2898C85.4041 23.2898 84.6541 23.1364 83.9837 22.8295C83.3132 22.517 82.782 22.0653 82.3899 21.4744C82.0036 20.8835 81.8104 20.1591 81.8104 19.3011C81.8104 18.5625 81.9524 17.9545 82.2365 17.4773C82.5206 17 82.9041 16.6222 83.3871 16.3438C83.87 16.0653 84.4098 15.8551 85.0064 15.7131C85.603 15.571 86.2109 15.4631 86.8303 15.3892C87.6143 15.2983 88.2507 15.2244 88.7393 15.1676C89.228 15.1051 89.5831 15.0057 89.8047 14.8693C90.0263 14.733 90.1371 14.5114 90.1371 14.2045V14.1449C90.1371 13.4006 89.9268 12.8239 89.5064 12.4148C89.0916 12.0057 88.4723 11.8011 87.6484 11.8011C86.7905 11.8011 86.1143 11.9915 85.62 12.3722C85.1314 12.7472 84.7933 13.1648 84.6058 13.625L82.2109 13.0795C82.495 12.2841 82.9098 11.642 83.4553 11.1534C84.0064 10.6591 84.6399 10.3011 85.3558 10.0795C86.0717 9.85227 86.8246 9.73864 87.6143 9.73864C88.1371 9.73864 88.6911 9.80114 89.2763 9.92614C89.8672 10.0455 90.4183 10.267 90.9297 10.5909C91.4467 10.9148 91.87 11.3778 92.1996 11.9801C92.5291 12.5767 92.6939 13.3523 92.6939 14.3068V23H90.2053V21.2102H90.103C89.9382 21.5398 89.6911 21.8636 89.3615 22.1818C89.032 22.5 88.6087 22.7642 88.0916 22.9744C87.5746 23.1847 86.9553 23.2898 86.2337 23.2898ZM86.7876 21.2443C87.4922 21.2443 88.0945 21.1051 88.5945 20.8267C89.1001 20.5483 89.4837 20.1847 89.745 19.7358C90.0121 19.2812 90.1456 18.7955 90.1456 18.2784V16.5909C90.0547 16.6818 89.8786 16.767 89.6172 16.8466C89.3615 16.9205 89.0689 16.9858 88.7393 17.0426C88.4098 17.0937 88.0888 17.142 87.7763 17.1875C87.4638 17.2273 87.2024 17.2614 86.9922 17.2898C86.4979 17.3523 86.0462 17.4574 85.6371 17.6051C85.2337 17.7528 84.9098 17.9659 84.6655 18.2443C84.4268 18.517 84.3075 18.8807 84.3075 19.3352C84.3075 19.9659 84.5405 20.4432 85.0064 20.767C85.4723 21.0852 86.0661 21.2443 86.7876 21.2443ZM105.018 9.90909L100.271 23H97.5438L92.7881 9.90909H95.5239L98.8392 19.983H98.9756L102.282 9.90909H105.018ZM110.81 23.2642C109.52 23.2642 108.409 22.9886 107.477 22.4375C106.551 21.8807 105.835 21.0994 105.33 20.0938C104.83 19.0824 104.58 17.8977 104.58 16.5398C104.58 15.1989 104.83 14.017 105.33 12.9943C105.835 11.9716 106.54 11.1733 107.443 10.5994C108.352 10.0256 109.415 9.73864 110.631 9.73864C111.369 9.73864 112.085 9.8608 112.779 10.1051C113.472 10.3494 114.094 10.733 114.645 11.2557C115.196 11.7784 115.631 12.4574 115.949 13.2926C116.267 14.1222 116.426 15.1307 116.426 16.3182V17.2216H106.02V15.3125H113.929C113.929 14.642 113.793 14.0483 113.52 13.5312C113.247 13.0085 112.864 12.5966 112.369 12.2955C111.881 11.9943 111.307 11.8438 110.648 11.8438C109.932 11.8438 109.307 12.0199 108.773 12.3722C108.244 12.7187 107.835 13.1733 107.546 13.7358C107.262 14.2926 107.119 14.8977 107.119 15.5511V17.0426C107.119 17.9176 107.273 18.6619 107.58 19.2756C107.892 19.8892 108.327 20.358 108.884 20.6818C109.44 21 110.091 21.1591 110.835 21.1591C111.318 21.1591 111.759 21.0909 112.156 20.9545C112.554 20.8125 112.898 20.6023 113.188 20.3239C113.477 20.0455 113.699 19.7017 113.852 19.2926L116.264 19.7273C116.071 20.4375 115.725 21.0597 115.225 21.5938C114.73 22.1222 114.108 22.5341 113.358 22.8295C112.614 23.1193 111.764 23.2642 110.81 23.2642ZM120.002 5.54545V23H117.454V5.54545H120.002ZM126.182 9.90909H128.73V23.8523C128.73 24.7273 128.571 25.4659 128.253 26.0682C127.94 26.6705 127.474 27.1278 126.855 27.4403C126.241 27.7528 125.483 27.9091 124.58 27.9091C124.489 27.9091 124.403 27.9091 124.324 27.9091C124.239 27.9091 124.151 27.9063 124.06 27.9006V25.7102C124.139 25.7102 124.21 25.7102 124.273 25.7102C124.33 25.7102 124.395 25.7102 124.469 25.7102C125.071 25.7102 125.506 25.5483 125.773 25.2244C126.045 24.9063 126.182 24.4432 126.182 23.8352V9.90909ZM127.443 7.8892C127 7.8892 126.619 7.74148 126.301 7.44602C125.989 7.14489 125.832 6.78693 125.832 6.37216C125.832 5.9517 125.989 5.59375 126.301 5.29829C126.619 4.99716 127 4.84659 127.443 4.84659C127.886 4.84659 128.264 4.99716 128.577 5.29829C128.895 5.59375 129.054 5.9517 129.054 6.37216C129.054 6.78693 128.895 7.14489 128.577 7.44602C128.264 7.74148 127.886 7.8892 127.443 7.8892ZM135.873 23.2642C134.645 23.2642 133.574 22.983 132.66 22.4205C131.745 21.858 131.035 21.071 130.529 20.0597C130.023 19.0483 129.77 17.8665 129.77 16.5142C129.77 15.1562 130.023 13.9687 130.529 12.9517C131.035 11.9347 131.745 11.1449 132.66 10.5824C133.574 10.0199 134.645 9.73864 135.873 9.73864C137.1 9.73864 138.171 10.0199 139.086 10.5824C140 11.1449 140.711 11.9347 141.216 12.9517C141.722 13.9687 141.975 15.1562 141.975 16.5142C141.975 17.8665 141.722 19.0483 141.216 20.0597C140.711 21.071 140 21.858 139.086 22.4205C138.171 22.983 137.1 23.2642 135.873 23.2642ZM135.881 21.125C136.677 21.125 137.336 20.9148 137.858 20.4943C138.381 20.0739 138.767 19.5142 139.017 18.8153C139.273 18.1165 139.401 17.3466 139.401 16.5057C139.401 15.6705 139.273 14.9034 139.017 14.2045C138.767 13.5 138.381 12.9347 137.858 12.5085C137.336 12.0824 136.677 11.8693 135.881 11.8693C135.08 11.8693 134.415 12.0824 133.887 12.5085C133.364 12.9347 132.975 13.5 132.719 14.2045C132.469 14.9034 132.344 15.6705 132.344 16.5057C132.344 17.3466 132.469 18.1165 132.719 18.8153C132.975 19.5142 133.364 20.0739 133.887 20.4943C134.415 20.9148 135.08 21.125 135.881 21.125ZM151.312 17.571V9.90909H153.869V23H151.363V20.733H151.227C150.926 21.4318 150.443 22.0142 149.778 22.4801C149.119 22.9403 148.298 23.1705 147.315 23.1705C146.474 23.1705 145.73 22.9858 145.082 22.6165C144.44 22.2415 143.934 21.6875 143.565 20.9545C143.201 20.2216 143.019 19.3153 143.019 18.2358V9.90909H145.568V17.929C145.568 18.821 145.815 19.5312 146.309 20.0597C146.803 20.5881 147.445 20.8523 148.235 20.8523C148.713 20.8523 149.187 20.733 149.659 20.4943C150.136 20.2557 150.531 19.8949 150.843 19.4119C151.161 18.929 151.318 18.3153 151.312 17.571ZM155.493 23V9.90909H157.956V11.9886H158.092C158.331 11.2841 158.751 10.7301 159.354 10.3267C159.962 9.91761 160.649 9.71307 161.416 9.71307C161.575 9.71307 161.763 9.71875 161.979 9.73011C162.2 9.74148 162.373 9.75568 162.498 9.77273V12.2102C162.396 12.1818 162.214 12.1506 161.953 12.1165C161.692 12.0767 161.43 12.0568 161.169 12.0568C160.567 12.0568 160.03 12.1847 159.558 12.4403C159.092 12.6903 158.723 13.0398 158.45 13.4886C158.177 13.9318 158.041 14.4375 158.041 15.0057V23H155.493ZM165.452 15.2273V23H162.904V9.90909H165.35V12.0398H165.512C165.813 11.3466 166.284 10.7898 166.926 10.3693C167.574 9.94886 168.389 9.73864 169.372 9.73864C170.264 9.73864 171.046 9.92614 171.716 10.3011C172.387 10.6705 172.907 11.2216 173.276 11.9545C173.645 12.6875 173.83 13.5937 173.83 14.6733V23H171.282V14.9801C171.282 14.0312 171.034 13.2898 170.54 12.7557C170.046 12.2159 169.367 11.946 168.503 11.946C167.912 11.946 167.387 12.0739 166.926 12.3295C166.472 12.5852 166.111 12.9602 165.844 13.4545C165.583 13.9432 165.452 14.5341 165.452 15.2273ZM179.257 23.2898C178.428 23.2898 177.678 23.1364 177.007 22.8295C176.337 22.517 175.805 22.0653 175.413 21.4744C175.027 20.8835 174.834 20.1591 174.834 19.3011C174.834 18.5625 174.976 17.9545 175.26 17.4773C175.544 17 175.928 16.6222 176.411 16.3438C176.893 16.0653 177.433 15.8551 178.03 15.7131C178.626 15.571 179.234 15.4631 179.854 15.3892C180.638 15.2983 181.274 15.2244 181.763 15.1676C182.251 15.1051 182.607 15.0057 182.828 14.8693C183.05 14.733 183.161 14.5114 183.161 14.2045V14.1449C183.161 13.4006 182.95 12.8239 182.53 12.4148C182.115 12.0057 181.496 11.8011 180.672 11.8011C179.814 11.8011 179.138 11.9915 178.643 12.3722C178.155 12.7472 177.817 13.1648 177.629 13.625L175.234 13.0795C175.518 12.2841 175.933 11.642 176.479 11.1534C177.03 10.6591 177.663 10.3011 178.379 10.0795C179.095 9.85227 179.848 9.73864 180.638 9.73864C181.161 9.73864 181.714 9.80114 182.3 9.92614C182.891 10.0455 183.442 10.267 183.953 10.5909C184.47 10.9148 184.893 11.3778 185.223 11.9801C185.553 12.5767 185.717 13.3523 185.717 14.3068V23H183.229V21.2102H183.126C182.962 21.5398 182.714 21.8636 182.385 22.1818C182.055 22.5 181.632 22.7642 181.115 22.9744C180.598 23.1847 179.979 23.2898 179.257 23.2898ZM179.811 21.2443C180.516 21.2443 181.118 21.1051 181.618 20.8267C182.124 20.5483 182.507 20.1847 182.768 19.7358C183.036 19.2812 183.169 18.7955 183.169 18.2784V16.5909C183.078 16.6818 182.902 16.767 182.641 16.8466C182.385 16.9205 182.092 16.9858 181.763 17.0426C181.433 17.0937 181.112 17.142 180.8 17.1875C180.487 17.2273 180.226 17.2614 180.016 17.2898C179.521 17.3523 179.07 17.4574 178.661 17.6051C178.257 17.7528 177.933 17.9659 177.689 18.2443C177.45 18.517 177.331 18.8807 177.331 19.3352C177.331 19.9659 177.564 20.4432 178.03 20.767C178.496 21.0852 179.089 21.2443 179.811 21.2443ZM189.86 5.54545V23H187.312V5.54545H189.86ZM193.167 23.1619C192.701 23.1619 192.301 22.9972 191.965 22.6676C191.63 22.3324 191.462 21.929 191.462 21.4574C191.462 20.9915 191.63 20.5937 191.965 20.2642C192.301 19.929 192.701 19.7614 193.167 19.7614C193.633 19.7614 194.034 19.929 194.369 20.2642C194.704 20.5937 194.872 20.9915 194.872 21.4574C194.872 21.7699 194.792 22.0568 194.633 22.3182C194.48 22.5739 194.275 22.7784 194.019 22.9318C193.764 23.0852 193.48 23.1619 193.167 23.1619Z" fill="white"/>
<path fill-rule="evenodd" clip-rule="evenodd" d="M19.8649 20.2C19.7357 20.0799 19.6376 19.9553 19.6044 19.84C19.4739 19.383 19.646 18.0548 19.9048 17.6401C20.1628 17.2239 19.877 15.975 19.7926 15.7683C19.7058 15.5604 19.6767 15.2906 19.3805 15.3724C19.0826 15.4558 18.4132 15.4247 17.8078 15.3002C17.2008 15.1768 16.6723 14.5921 16.5514 13.9328C16.416 13.1937 16.416 12.4757 16.5888 12.0255C16.782 11.5194 17.2577 11.3278 17.6932 11.0892C17.8938 10.9798 18.8644 10.825 18.8279 10.358C18.6023 9.92776 16.5418 10.4171 16.4592 9.74856C16.3756 9.07886 16.3461 8.74281 16.6075 8.20401C16.8817 7.64207 16.5664 7.7171 16.4907 7.03583C16.4804 6.93884 16.6952 6.6882 16.7122 6.6C17.4231 7.0043 18.0908 7.48762 18.6899 8.06313C20.5667 9.8667 21.6 12.2645 21.6 14.8152C21.6 16.7669 20.9905 18.6255 19.8649 20.2M15.4437 19.8971C15.034 20.5476 15.1325 21.0268 14.1978 21.5241C13.6772 21.8014 13.3068 21.88 13.0314 22.6248C12.7548 23.368 12.2962 23.3418 11.1513 23.9456C10.0047 24.5509 9.54928 23.9456 9.45589 23.4813C9.36289 23.017 9.64545 21.9203 9.64545 21.9203C9.64545 21.9203 9.75752 21.5927 8.94521 21.2227C6.89098 20.2872 8.66344 17.0029 8.66344 17.0029C8.19926 16.4596 7.02053 15.394 5.37484 15.045C3.80148 14.7121 3.3528 13.7887 2.8 12.867C3.20457 11.1606 4.05464 9.59235 5.30967 8.31877C7.10479 6.49786 9.49086 5.4 12.0315 5.4C12.0315 5.4 12.8883 5.4 13.6971 5.6124C12.9575 6.42653 12.1301 7.24952 11.5153 7.47643C10.4085 7.88752 9.89543 8.56099 9.89066 9.27839C9.88827 9.64999 10.6577 10.3235 10.6577 11.1755C10.6577 12.6236 9.59498 12.657 9.47099 12.0468C9.19121 10.6628 8.12097 11.0203 6.83931 11.1589C5.55567 11.2988 4.77793 12.8102 5.60216 13.4147C6.42799 14.0193 6.38547 13.2237 6.703 12.9968C7.01894 12.7695 7.24229 12.6796 7.48233 12.9968C7.72038 13.314 8.23662 13.4865 8.18694 14.1374C8.14363 14.7879 8.00453 15.3448 8.87685 15.3448C9.74799 15.3448 9.77819 15.5391 10.331 15.8176C10.8782 16.0965 11.3965 16.0441 11.8531 16.1376C12.3117 16.2299 12.9126 17.1279 12.9126 17.1279C14.2125 17.5539 14.6401 17.728 14.999 18.0907C15.3567 18.4534 15.8582 19.2462 15.4437 19.8971M11.9986 3H11.9954H11.9922C7.23149 3 3.13019 5.7812 1.19038 9.8C0.430136 11.3748 8.94955e-08 13.1344 8.94955e-08 15C-0.000800164 21.6264 5.3653 27 11.9938 27H11.997H12.0002C18.6263 27 24.0008 21.6264 24 15.0016C24.0008 8.314 18.5467 3 11.9986 3" fill="white"/>
</svg>
